<?xml version="1.0" standalone="no"?>
<!DOCTYPE svg PUBLIC "-//W3C//DTD SVG 20010904//EN"
 "http://www.w3.org/TR/2001/REC-SVG-20010904/DTD/svg10.dtd">
<svg version="1.0" xmlns="http://www.w3.org/2000/svg"
 width="300.000000pt" height="300.000000pt" viewBox="0 0 300.000000 300.000000"
 preserveAspectRatio="xMidYMid meet">
<metadata>
Created by potrace 1.11, written by Peter Selinger 2001-2013
</metadata>
<g transform="translate(0.000000,300.000000) scale(0.100000,-0.100000)"
fill="#000000" stroke="none">
<path d="M1036 2286 c-14 -25 -26 -47 -26 -50 0 -3 -13 -35 -30 -71 -16 -36
-30 -71 -30 -77 0 -9 -3 -9 -12 0 -16 16 -75 15 -85 0 -31 -50 1 -96 71 -105
29 -3 70 22 61 37 -5 8 24 102 34 110 3 3 7 12 9 20 2 8 17 43 33 78 33 73 34
76 15 91 -11 9 -19 3 -40 -33z"/>
<path d="M2377 2186 c-17 -13 -16 -18 18 -102 20 -49 45 -110 56 -136 l19 -48
-29 -15 c-32 -16 -40 -31 -33 -57 5 -20 50 -30 75 -16 45 24 37 69 -44 246
-27 59 -31 75 -20 82 8 4 24 4 37 -2 12 -6 35 -7 49 -4 30 8 29 14 -4 21 -12
2 -33 13 -48 24 -30 24 -51 26 -76 7z"/>
<path d="M1377 2166 c-26 -7 -51 -14 -55 -16 -51 -19 -54 -21 -47 -38 4 -9 8
-24 10 -32 11 -46 35 -129 44 -153 15 -37 15 -37 -14 -37 -14 0 -38 -12 -54
-27 -24 -22 -28 -32 -21 -49 11 -27 68 -39 103 -23 41 18 42 55 8 153 l-30 85
57 22 c114 43 108 44 121 -15 6 -28 14 -62 18 -75 4 -18 3 -22 -6 -16 -19 11
-58 -14 -64 -41 -5 -29 11 -52 38 -54 81 -8 91 13 58 124 -13 45 -26 96 -29
115 -11 86 -42 103 -137 77z m103 -45 c0 -5 -10 -12 -22 -16 -13 -3 -32 -10
-43 -15 -43 -18 -88 -30 -96 -24 -15 9 -10 24 9 25 9 0 42 9 72 19 63 22 80
24 80 11z"/>
<path d="M392 2089 c-44 -16 -43 -20 94 -269 12 -23 11 -25 -19 -37 -47 -20
-64 -44 -62 -86 2 -51 35 -74 95 -68 48 5 86 51 82 100 -2 25 -37 101 -93 198
-13 23 -21 45 -17 48 4 4 25 8 47 8 31 1 47 8 68 29 23 24 25 30 13 38 -9 5
-19 5 -24 0 -5 -5 -16 -5 -25 0 -69 34 -130 49 -159 39z m70 -54 c32 -7 47
-25 20 -25 -12 0 -25 -1 -28 -2 -4 -2 -14 8 -23 22 -9 14 -11 21 -4 17 7 -5
23 -10 35 -12z"/>
<path d="M2038 2078 c-8 -13 -38 -74 -68 -135 -30 -62 -57 -113 -61 -113 -4 0
-9 6 -12 14 -8 20 -56 26 -73 9 -17 -18 -18 -62 0 -85 9 -12 27 -18 55 -18 39
0 43 3 57 38 8 20 30 69 49 107 18 39 35 76 37 84 3 9 13 1 27 -23 22 -34 49
-52 93 -61 29 -6 30 12 2 34 -16 13 -27 33 -30 55 -5 44 -20 84 -38 102 -19
18 -21 18 -38 -8z m36 -86 c2 -18 2 -32 0 -32 -12 0 -33 50 -28 64 9 24 23 7
28 -32z"/>
<path d="M1308 1565 c-2 -1 -33 -5 -70 -9 -170 -16 -287 -53 -495 -156 -84
-42 -153 -73 -153 -68 0 4 -3 8 -7 7 -16 -2 -53 14 -53 22 0 5 -3 9 -7 8 -16
-2 -53 14 -53 22 0 5 -3 8 -7 7 -5 0 -35 11 -68 26 -43 20 -64 25 -75 18 -8
-6 -14 -15 -12 -21 1 -7 4 -22 6 -34 3 -12 5 -22 6 -22 1 0 3 -11 6 -25 2 -14
7 -32 10 -40 4 -8 19 -51 35 -95 l28 -79 -38 -61 c-21 -33 -48 -79 -60 -102
-14 -28 -34 -49 -59 -62 -77 -39 -152 -143 -168 -231 -8 -47 -7 -402 1 -443
18 -79 89 -178 152 -210 29 -16 136 -17 1241 -17 l1209 0 38 26 c44 30 52 37
87 84 51 69 60 122 60 343 -1 175 -4 234 -12 245 -2 1 -3 5 -4 10 -1 4 -11 27
-23 52 -28 56 -85 115 -136 141 -31 16 -44 32 -67 85 -16 35 -44 85 -61 111
l-32 46 32 91 c18 50 38 115 46 144 7 29 15 56 18 59 3 3 0 12 -8 19 -17 17
-51 6 -185 -62 -52 -27 -102 -48 -110 -48 -8 1 -42 17 -75 37 -56 33 -190 93
-230 103 -5 1 -30 9 -55 17 -142 48 -267 65 -477 65 -94 0 -173 -1 -175 -3z
m349 -110 c98 -9 203 -32 307 -67 90 -29 236 -96 236 -107 0 -3 -15 -15 -33
-27 -31 -20 -34 -20 -63 -5 -32 17 -155 74 -164 76 -3 1 -30 9 -61 19 -195 59
-469 77 -639 41 -14 -3 -38 -7 -55 -9 -74 -9 -184 -46 -318 -109 -85 -39 -90
-40 -115 -25 -15 9 -28 20 -29 25 -4 11 241 120 324 144 37 10 88 22 113 25
25 3 47 8 50 9 3 2 60 7 125 11 66 3 121 7 122 8 4 3 136 -2 200 -9z m853
-485 c17 -41 2 -58 -29 -33 -19 16 -21 22 -12 46 13 33 23 29 41 -13z m-2061
-36 c-8 -8 -19 -10 -27 -5 -10 6 -9 14 5 39 l18 32 9 -26 c6 -18 4 -30 -5 -40z"/>
</g>
</svg>
