<?xml version="1.0" standalone="no"?>
<!DOCTYPE svg PUBLIC "-//W3C//DTD SVG 20010904//EN"
 "http://www.w3.org/TR/2001/REC-SVG-20010904/DTD/svg10.dtd">
<svg version="1.0" xmlns="http://www.w3.org/2000/svg"
 width="300.000000pt" height="300.000000pt" viewBox="0 0 300.000000 300.000000"
 preserveAspectRatio="xMidYMid meet">
<metadata>
Created by potrace 1.11, written by Peter Selinger 2001-2013
</metadata>
<g transform="translate(0.000000,300.000000) scale(0.100000,-0.100000)"
fill="#000000" stroke="none">
<path d="M1062 2323 c-14 -5 -56 -85 -91 -174 l-22 -57 -40 5 c-45 6 -69 -8
-69 -42 0 -37 31 -66 75 -71 48 -6 67 5 70 39 4 31 32 107 74 199 39 85 40
114 3 101z"/>
<path d="M2385 2186 c-19 -14 -19 -15 -1 -68 11 -29 34 -87 53 -130 18 -42 33
-80 33 -85 0 -5 -14 -14 -31 -20 -25 -10 -30 -16 -27 -40 2 -24 8 -28 36 -31
86 -8 83 53 -11 245 -41 84 -35 100 26 81 28 -9 40 -9 49 0 9 9 8 12 -7 12
-10 0 -33 11 -51 25 -38 29 -44 30 -69 11z"/>
<path d="M1352 2161 c-35 -10 -68 -23 -72 -27 -9 -9 23 -140 49 -207 15 -37
15 -37 -13 -37 -33 0 -76 -37 -76 -65 0 -43 56 -58 110 -30 38 20 38 41 4 146
-16 46 -23 83 -18 88 12 10 122 51 138 51 7 0 18 -21 24 -47 6 -27 14 -58 18
-70 5 -18 2 -21 -13 -17 -38 10 -74 -47 -51 -79 7 -9 27 -20 44 -23 25 -5 37
-1 54 16 13 13 19 28 15 38 -3 9 -17 64 -31 122 -34 141 -41 155 -84 157 -19
1 -63 -6 -98 -16z m128 -40 c0 -15 -154 -60 -162 -47 -4 6 21 19 65 32 84 25
97 27 97 15z"/>
<path d="M2043 2088 c-6 -7 -36 -68 -68 -135 -56 -118 -59 -122 -79 -108 -27
20 -72 19 -80 -1 -20 -53 9 -94 67 -94 34 0 39 4 53 38 36 83 89 192 95 192 3
0 12 -12 19 -26 17 -31 85 -68 108 -59 15 6 13 10 -8 28 -17 15 -30 41 -38 78
-12 55 -35 99 -51 99 -5 0 -13 -6 -18 -12z m26 -86 c7 -24 6 -30 -5 -25 -16 6
-28 39 -19 54 9 14 14 8 24 -29z"/>
<path d="M371 2076 c-12 -14 -8 -26 24 -89 21 -39 53 -98 72 -130 20 -32 34
-59 32 -60 -2 -1 -20 -10 -40 -20 -61 -31 -77 -92 -33 -126 40 -32 94 -28 129
9 46 48 36 88 -66 267 -13 23 -21 44 -17 48 3 3 25 8 47 9 27 2 51 12 66 26
33 31 31 40 -5 40 -17 0 -45 7 -62 16 -47 24 -131 30 -147 10z m129 -58 c0 -4
-9 -8 -20 -8 -11 0 -23 -1 -26 -2 -4 -2 -13 7 -21 18 -14 21 -13 21 27 11 22
-6 40 -15 40 -19z"/>
<path d="M1340 1563 c-247 -18 -371 -53 -618 -176 l-123 -60 -127 61 c-70 34
-134 62 -144 62 -35 0 -28 -44 33 -217 l39 -112 -33 -53 c-19 -29 -44 -72 -56
-95 -20 -41 -21 -43 -3 -43 28 0 32 -69 32 -532 l0 -398 60 0 60 0 0 443 c0
388 -2 446 -16 463 -15 18 -15 17 -10 -14 11 -64 17 -307 9 -357 -7 -40 -12
-51 -29 -53 -40 -6 -46 17 -45 190 1 149 -3 189 -24 241 -6 14 -2 17 28 17 29
0 37 5 47 30 13 31 30 40 30 16 0 -33 21 -20 111 67 52 51 122 110 156 132 34
22 62 42 63 45 0 3 -13 14 -30 23 -16 10 -30 22 -30 26 0 13 209 107 302 136
233 74 590 82 833 18 143 -37 345 -120 345 -141 0 -5 -16 -17 -36 -29 l-36
-20 74 -49 c40 -27 115 -89 165 -137 l93 -89 10 26 c12 33 27 26 46 -20 11
-27 20 -34 43 -34 l28 0 -14 -52 c-9 -35 -13 -107 -12 -211 1 -167 -5 -191
-45 -185 -18 3 -22 13 -29 63 -8 57 -2 271 9 345 5 33 4 34 -10 16 -14 -17
-16 -76 -16 -463 l0 -443 60 0 60 0 0 398 c0 460 4 530 31 534 18 3 17 6 -7
58 -14 30 -39 77 -56 104 l-31 48 17 47 c28 72 76 232 76 253 0 37 -32 30
-168 -36 l-137 -68 -70 41 c-241 141 -572 209 -905 184z"/>
<path d="M78 650 c-10 -76 -3 -393 9 -415 14 -25 101 -110 107 -104 2 2 -9 67
-25 143 l-29 140 37 30 c21 17 51 44 68 60 34 34 36 32 -68 61 -60 17 -65 22
-84 95 l-9 35 -6 -45z"/>
<path d="M1970 678 c-118 -34 -165 -163 -97 -266 31 -47 80 -72 142 -72 55 0
93 18 129 60 107 128 -16 324 -174 278z m19 -76 c12 -23 -11 -62 -38 -62 -38
0 -56 50 -23 69 26 16 50 13 61 -7z"/>
<path d="M2834 652 c-9 -59 -21 -70 -97 -91 -37 -10 -71 -22 -75 -26 -7 -7 16
-30 91 -91 l38 -31 -31 -138 c-17 -76 -28 -140 -25 -143 8 -8 94 77 109 108
10 18 13 81 12 232 -2 203 -9 261 -22 180z"/>
<path d="M907 666 c-75 -28 -117 -86 -117 -161 0 -88 49 -153 132 -176 117
-31 234 80 213 202 -18 106 -129 172 -228 135z m23 -71 c7 -8 10 -25 6 -39
-12 -48 -76 -41 -76 8 0 42 45 62 70 31z"/>
<path d="M390 520 c0 -13 7 -20 20 -20 13 0 20 7 20 20 0 13 -7 20 -20 20 -13
0 -20 -7 -20 -20z"/>
<path d="M2500 520 c0 -13 7 -20 20 -20 13 0 20 7 20 20 0 13 -7 20 -20 20
-13 0 -20 -7 -20 -20z"/>
<path d="M2172 367 c-28 -29 -28 -61 -2 -87 18 -18 31 -20 92 -18 63 3 73 6
91 29 12 17 17 34 12 48 -13 41 -33 51 -104 51 -58 0 -71 -3 -89 -23z"/>
<path d="M656 355 c-26 -27 -29 -56 -9 -84 18 -23 28 -26 91 -29 61 -2 74 0
92 18 25 25 26 71 2 93 -25 23 -154 24 -176 2z"/>
<path d="M1260 239 c0 -21 59 -69 87 -71 47 -2 66 2 83 17 14 13 19 13 36 0
28 -21 127 -20 146 3 24 27 32 62 15 62 -8 0 -18 -11 -21 -25 -12 -47 -120
-45 -141 3 -13 28 -23 28 -34 -2 -18 -46 -79 -49 -123 -6 -31 31 -48 38 -48
19z"/>
</g>
</svg>
