<svg width="30" height="30" xmlns="http://www.w3.org/2000/svg">
 <g>
  <title>Layer 1</title>
  <g stroke="null" id="svg_186">
   <rect stroke="#ffffff" id="svg_148" height="1.110187" width="3.239132" y="13.446489" x="1.187523" stroke-opacity="0" stroke-width="1.5" fill="#ce0000"/>
   <rect stroke="#ffffff" id="svg_149" height="1.110187" width="3.239132" y="12.15127" x="1.187523" stroke-opacity="0" stroke-width="1.5" fill="#ce0000"/>
   <rect stroke="#ffffff" id="svg_150" height="1.110187" width="3.239132" y="10.85605" x="1.187523" stroke-opacity="0" stroke-width="1.5" fill="#ce0000"/>
   <rect stroke="#ffffff" id="svg_151" height="1.110187" width="3.239132" y="13.446491" x="4.831542" stroke-opacity="0" stroke-width="1.5" fill="#ea6d00"/>
   <rect stroke="#ffffff" id="svg_152" height="1.110187" width="3.239132" y="12.151285" x="4.831542" stroke-opacity="0" stroke-width="1.5" fill="#ea6d00"/>
   <rect stroke="#ffffff" id="svg_153" height="1.110187" width="3.239132" y="10.856078" x="4.831542" stroke-opacity="0" stroke-width="1.5" fill="#ea6d00"/>
   <rect stroke="#ffffff" id="svg_154" height="1.110187" width="3.239132" y="9.560871" x="4.831542" stroke-opacity="0" stroke-width="1.5" fill="#ea6d00"/>
   <rect stroke="#ffffff" id="svg_155" height="1.110187" width="3.239132" y="8.265665" x="4.831542" stroke-opacity="0" stroke-width="1.5" fill="#ea6d00"/>
   <rect stroke="#ffffff" id="svg_156" height="1.110187" width="3.239132" y="6.970458" x="4.831541" stroke-opacity="0" stroke-width="1.5" fill="#ea6d00"/>
   <rect stroke="#ffffff" id="svg_157" height="1.110187" width="3.239132" y="13.446491" x="8.408044" stroke-opacity="0" stroke-width="1.5" fill="#f6ff00"/>
   <rect stroke="#ffffff" id="svg_158" height="1.110187" width="3.239132" y="12.151285" x="8.408044" stroke-opacity="0" stroke-width="1.5" fill="#f6ff00"/>
   <rect stroke="#ffffff" id="svg_159" height="1.110187" width="3.239132" y="10.856078" x="8.408044" stroke-opacity="0" stroke-width="1.5" fill="#f6ff00"/>
   <rect stroke="#ffffff" id="svg_160" height="1.110187" width="3.239132" y="9.560871" x="8.408044" stroke-opacity="0" stroke-width="1.5" fill="#f6ff00"/>
   <rect stroke="#ffffff" id="svg_161" height="1.110187" width="3.239132" y="13.446491" x="11.917065" stroke-opacity="0" stroke-width="1.5" fill="#2eff00"/>
   <rect stroke="#ffffff" id="svg_162" height="1.110187" width="3.239132" y="13.446491" x="15.426087" stroke-opacity="0" stroke-width="1.5" fill="#00ffbf"/>
   <rect stroke="#ffffff" id="svg_163" height="1.110187" width="3.239132" y="13.446491" x="18.867627" stroke-opacity="0" stroke-width="1.5" fill="#0099ff"/>
   <rect stroke="#ffffff" id="svg_164" height="1.110187" width="3.239132" y="13.446491" x="22.376648" stroke-opacity="0" stroke-width="1.5" fill="#0019ff"/>
   <rect stroke="#ffffff" id="svg_165" height="1.110187" width="3.239132" y="13.446491" x="25.885669" stroke-opacity="0" stroke-width="1.5" fill="#9800ff"/>
   <rect stroke="#ffffff" id="svg_166" height="1.110187" width="3.239132" y="12.151284" x="11.917065" stroke-opacity="0" stroke-width="1.5" fill="#2eff00"/>
   <rect stroke="#ffffff" id="svg_167" height="1.110187" width="3.239132" y="10.856078" x="11.917065" stroke-opacity="0" stroke-width="1.5" fill="#2eff00"/>
   <rect stroke="#ffffff" id="svg_168" height="1.110187" width="3.239132" y="9.560871" x="11.917065" stroke-opacity="0" stroke-width="1.5" fill="#2eff00"/>
   <rect stroke="#ffffff" id="svg_169" height="1.110187" width="3.239132" y="8.265665" x="11.917065" stroke-opacity="0" stroke-width="1.5" fill="#2eff00"/>
   <rect stroke="#ffffff" id="svg_170" height="1.110187" width="3.239132" y="6.970458" x="11.917065" stroke-opacity="0" stroke-width="1.5" fill="#2eff00"/>
   <rect stroke="#ffffff" id="svg_171" height="1.110187" width="3.239132" y="5.675252" x="11.917065" stroke-opacity="0" stroke-width="1.5" fill="#2eff00"/>
   <rect stroke="#ffffff" id="svg_172" height="1.110187" width="3.239132" y="4.380045" x="11.917065" stroke-opacity="0" stroke-width="1.5" fill="#2eff00"/>
   <rect stroke="#ffffff" id="svg_173" height="1.110187" width="3.239132" y="3.084839" x="11.917065" stroke-opacity="0" stroke-width="1.5" fill="#2eff00"/>
   <rect stroke="#ffffff" id="svg_174" height="1.110187" width="3.239132" y="12.151284" x="15.426087" stroke-opacity="0" stroke-width="1.5" fill="#00ffbf"/>
   <rect stroke="#ffffff" id="svg_175" height="1.110187" width="3.239132" y="10.856078" x="15.426087" stroke-opacity="0" stroke-width="1.5" fill="#00ffbf"/>
   <rect stroke="#ffffff" id="svg_176" height="1.110187" width="3.239132" y="12.151284" x="18.867627" stroke-opacity="0" stroke-width="1.5" fill="#0099ff"/>
   <rect stroke="#ffffff" id="svg_177" height="1.110187" width="3.239132" y="10.856078" x="18.867627" stroke-opacity="0" stroke-width="1.5" fill="#0099ff"/>
   <rect stroke="#ffffff" id="svg_178" height="1.110187" width="3.239132" y="9.560871" x="18.867627" stroke-opacity="0" stroke-width="1.5" fill="#0099ff"/>
   <rect stroke="#ffffff" id="svg_179" height="1.110187" width="3.239132" y="8.265665" x="18.867627" stroke-opacity="0" stroke-width="1.5" fill="#0099ff"/>
   <rect stroke="#ffffff" id="svg_180" height="1.110187" width="3.239132" y="12.151284" x="22.376648" stroke-opacity="0" stroke-width="1.5" fill="#0019ff"/>
   <rect stroke="#ffffff" id="svg_181" height="1.110187" width="3.239132" y="10.856078" x="22.376648" stroke-opacity="0" stroke-width="1.5" fill="#0019ff"/>
   <rect stroke="#ffffff" id="svg_182" height="1.110187" width="3.239132" y="9.560871" x="22.376648" stroke-opacity="0" stroke-width="1.5" fill="#0019ff"/>
   <rect stroke="#ffffff" id="svg_183" height="1.110187" width="3.239132" y="8.265665" x="22.376648" stroke-opacity="0" stroke-width="1.5" fill="#0019ff"/>
   <rect stroke="#ffffff" id="svg_184" height="1.110187" width="3.239132" y="6.970458" x="22.376648" stroke-opacity="0" stroke-width="1.5" fill="#0019ff"/>
   <rect stroke="#ffffff" id="svg_185" height="1.110187" width="3.239132" y="12.151284" x="25.885669" stroke-opacity="0" stroke-width="1.5" fill="#9800ff"/>
  </g>
  <g stroke="null" id="svg_147">
   <rect stroke="#ffffff" id="svg_2" height="1.110187" width="3.239132" y="10.821481" x="1.187523" stroke-opacity="0" stroke-width="1.5" fill="#ce0000"/>
   <rect stroke="#ffffff" id="svg_3" height="1.110187" width="3.239132" y="9.526262" x="1.187523" stroke-opacity="0" stroke-width="1.5" fill="#ce0000"/>
   <rect stroke="#ffffff" id="svg_4" height="1.110187" width="3.239132" y="8.231041" x="1.187523" stroke-opacity="0" stroke-width="1.5" fill="#ce0000"/>
   <rect stroke="#ffffff" id="svg_5" height="1.110187" width="3.239132" y="10.821483" x="4.831542" stroke-opacity="0" stroke-width="1.5" fill="#ea6d00"/>
   <rect stroke="#ffffff" id="svg_7" height="1.110187" width="3.239132" y="9.526276" x="4.831542" stroke-opacity="0" stroke-width="1.5" fill="#ea6d00"/>
   <rect stroke="#ffffff" id="svg_8" height="1.110187" width="3.239132" y="8.23107" x="4.831542" stroke-opacity="0" stroke-width="1.5" fill="#ea6d00"/>
   <rect stroke="#ffffff" id="svg_12" height="1.110187" width="3.239132" y="6.935863" x="4.831542" stroke-opacity="0" stroke-width="1.5" fill="#ea6d00"/>
   <rect stroke="#ffffff" id="svg_14" height="1.110187" width="3.239132" y="5.640657" x="4.831542" stroke-opacity="0" stroke-width="1.5" fill="#ea6d00"/>
   <rect stroke="#ffffff" id="svg_15" height="1.110187" width="3.239132" y="4.34545" x="4.831541" stroke-opacity="0" stroke-width="1.5" fill="#ea6d00"/>
   <rect stroke="#ffffff" id="svg_16" height="1.110187" width="3.239132" y="10.821483" x="8.408044" stroke-opacity="0" stroke-width="1.5" fill="#f6ff00"/>
   <rect stroke="#ffffff" id="svg_19" height="1.110187" width="3.239132" y="9.526276" x="8.408044" stroke-opacity="0" stroke-width="1.5" fill="#f6ff00"/>
   <rect stroke="#ffffff" id="svg_20" height="1.110187" width="3.239132" y="8.23107" x="8.408044" stroke-opacity="0" stroke-width="1.5" fill="#f6ff00"/>
   <rect stroke="#ffffff" id="svg_21" height="1.110187" width="3.239132" y="6.935863" x="8.408044" stroke-opacity="0" stroke-width="1.5" fill="#f6ff00"/>
   <rect stroke="#ffffff" id="svg_22" height="1.110187" width="3.239132" y="10.821483" x="11.917065" stroke-opacity="0" stroke-width="1.5" fill="#2eff00"/>
   <rect stroke="#ffffff" id="svg_23" height="1.110187" width="3.239132" y="10.821483" x="15.426087" stroke-opacity="0" stroke-width="1.5" fill="#00ffbf"/>
   <rect stroke="#ffffff" id="svg_24" height="1.110187" width="3.239132" y="10.821483" x="18.867627" stroke-opacity="0" stroke-width="1.5" fill="#0099ff"/>
   <rect stroke="#ffffff" id="svg_25" height="1.110187" width="3.239132" y="10.821483" x="22.376648" stroke-opacity="0" stroke-width="1.5" fill="#0019ff"/>
   <rect stroke="#ffffff" id="svg_26" height="1.110187" width="3.239132" y="10.821483" x="25.885669" stroke-opacity="0" stroke-width="1.5" fill="#9800ff"/>
   <rect stroke="#ffffff" id="svg_28" height="1.110187" width="3.239132" y="9.526276" x="11.917065" stroke-opacity="0" stroke-width="1.5" fill="#2eff00"/>
   <rect stroke="#ffffff" id="svg_29" height="1.110187" width="3.239132" y="8.231069" x="11.917065" stroke-opacity="0" stroke-width="1.5" fill="#2eff00"/>
   <rect stroke="#ffffff" id="svg_30" height="1.110187" width="3.239132" y="6.935863" x="11.917065" stroke-opacity="0" stroke-width="1.5" fill="#2eff00"/>
   <rect stroke="#ffffff" id="svg_31" height="1.110187" width="3.239132" y="5.640656" x="11.917065" stroke-opacity="0" stroke-width="1.5" fill="#2eff00"/>
   <rect stroke="#ffffff" id="svg_32" height="1.110187" width="3.239132" y="4.34545" x="11.917065" stroke-opacity="0" stroke-width="1.5" fill="#2eff00"/>
   <rect stroke="#ffffff" id="svg_33" height="1.110187" width="3.239132" y="3.050243" x="11.917065" stroke-opacity="0" stroke-width="1.5" fill="#2eff00"/>
   <rect stroke="#ffffff" id="svg_34" height="1.110187" width="3.239132" y="1.755037" x="11.917065" stroke-opacity="0" stroke-width="1.5" fill="#2eff00"/>
   <rect stroke="#ffffff" id="svg_35" height="1.110187" width="3.239132" y="0.45983" x="11.917065" stroke-opacity="0" stroke-width="1.5" fill="#2eff00"/>
   <rect stroke="#ffffff" id="svg_36" height="1.110187" width="3.239132" y="9.526276" x="15.426087" stroke-opacity="0" stroke-width="1.5" fill="#00ffbf"/>
   <rect stroke="#ffffff" id="svg_37" height="1.110187" width="3.239132" y="8.231069" x="15.426087" stroke-opacity="0" stroke-width="1.5" fill="#00ffbf"/>
   <rect stroke="#ffffff" id="svg_38" height="1.110187" width="3.239132" y="9.526276" x="18.867627" stroke-opacity="0" stroke-width="1.5" fill="#0099ff"/>
   <rect stroke="#ffffff" id="svg_39" height="1.110187" width="3.239132" y="8.231069" x="18.867627" stroke-opacity="0" stroke-width="1.5" fill="#0099ff"/>
   <rect stroke="#ffffff" id="svg_40" height="1.110187" width="3.239132" y="6.935863" x="18.867627" stroke-opacity="0" stroke-width="1.5" fill="#0099ff"/>
   <rect stroke="#ffffff" id="svg_41" height="1.110187" width="3.239132" y="5.640656" x="18.867627" stroke-opacity="0" stroke-width="1.5" fill="#0099ff"/>
   <rect stroke="#ffffff" id="svg_42" height="1.110187" width="3.239132" y="9.526276" x="22.376648" stroke-opacity="0" stroke-width="1.5" fill="#0019ff"/>
   <rect stroke="#ffffff" id="svg_43" height="1.110187" width="3.239132" y="8.231069" x="22.376648" stroke-opacity="0" stroke-width="1.5" fill="#0019ff"/>
   <rect stroke="#ffffff" id="svg_44" height="1.110187" width="3.239132" y="6.935863" x="22.376648" stroke-opacity="0" stroke-width="1.5" fill="#0019ff"/>
   <rect stroke="#ffffff" id="svg_45" height="1.110187" width="3.239132" y="5.640656" x="22.376648" stroke-opacity="0" stroke-width="1.5" fill="#0019ff"/>
   <rect stroke="#ffffff" id="svg_46" height="1.110187" width="3.239132" y="4.34545" x="22.376648" stroke-opacity="0" stroke-width="1.5" fill="#0019ff"/>
   <rect stroke="#ffffff" id="svg_47" height="1.110187" width="3.239132" y="9.526276" x="25.885669" stroke-opacity="0" stroke-width="1.5" fill="#9800ff"/>
  </g>
  <g id="svg_146">
   <path fill="#ab84b7" stroke="#2c2735" stroke-width="0.5" d="m21.50958,21.767431l8.08332,-14.33333l8.08333,14.33333l-16.16665,0z" id="svg_18" transform="rotate(18 29.592906951904286,14.60076522827149) "/>
   <path fill="#ab84b7" stroke="#2c2735" stroke-width="0.5" d="m-8.65708,21.100761l8.08333,-14.33332l8.08333,14.33332l-16.16666,0z" id="svg_17" transform="rotate(-18 -0.5737494230270265,13.934099197387697) "/>
  </g>
  <ellipse fill="#f7afd5" stroke="#633851" stroke-width="0.5" cx="15.083335" cy="26.200514" id="svg_6" rx="21.83332" ry="12.249993"/>
  <ellipse fill="#ffffff" stroke="#000000" cx="5.166674" cy="27.742179" id="svg_9" rx="2" ry="2"/>
  <ellipse fill="#ffffff" stroke="#ffffff" stroke-width="1.5" stroke-opacity="0" cx="25" cy="28.075513" id="svg_11" rx="4" ry="4"/>
  <ellipse fill="#ffffff" stroke="#ffffff" stroke-width="1.5" stroke-opacity="0" fill-opacity="null" cx="25" cy="25" id="svg_13" rx="1.333333" ry="3.416665"/>
  <ellipse fill="#ffffff" stroke="#000000" cx="25" cy="27.742181" id="svg_10" rx="2" ry="2"/>
 </g>
</svg>